<svg xmlns="http://www.w3.org/2000/svg" width="1440" height="177" fill="none" viewBox="0 0 1440 177">
  <path fill="#fff" d="M1099.7 133.355c122.95 36.25 285.41 39.04 339.3 14.325V43.069H0v133.446c95.8-49.431 263.45-63.605 389.188-28.835 128.962 35.662 271.938 10.066 379.208-14.325 117.755-26.774 177.63-45.311 331.304 0Z"/>
  <path fill="#499BFE" d="M315.56 0H0l.005 121.514c25.964-5.571 71.102-56.452 179.75-74.278 135.811-22.284 193.73 38.996 357.502 59.422 163.772 20.426 243.661-82.444 461.358-9.285C1204.33 166.505 1348.13 75.09 1440 56.52L1439.99 0H315.56Z"/>
</svg>
