<svg xmlns="http://www.w3.org/2000/svg" width="1440" height="177" fill="none" viewBox="0 0 1440 177">
  <path fill="#C8E1FF" d="M1094.48 176.328H1440V0c-25.96 6.505-71.1 65.91-179.75 86.723-135.81 26.017-193.73-45.53-357.504-69.378-163.773-23.849-243.661 104.257-461.359 18.84C235.673-44.529 91.872 54.202 0 75.883v100.445h1094.48Z"/>
  <path fill="#499BFE" d="M339.528 85.662C216.499 48.99 53.925 46.167 0 71.17V177h1440V42c-95.87 50.006-263.63 64.345-389.46 29.17-129.051-36.077-272.127-10.183-379.472 14.492-117.836 27.087-177.753 45.839-331.54 0Z"/>
</svg>
