<svg xmlns="http://www.w3.org/2000/svg" width="100" height="100" fill="none" viewBox="0 0 100 100">
  <circle cx="50" cy="50" r="50" fill="#fff"/>
  <g opacity=".5">
    <path fill="#499BFE" d="M22.419 56.93c-1.215-8.653-.045-16.793 5.4-23.89 5.129-6.686 12.159-10.195 20.296-11.526 8.189-1.337 16.077-.15 23.56 3.506.85.415 1.63.96 2.458 1.418.675.373.75.843.312 1.443-1.098 1.102-1.857 2.454-2.73 3.719-2.73 3.945-5.422 7.92-8.138 11.874-.444.648-.864.949-1.665.26-1.602-1.374-3.574-1.916-5.65-2.118-4.363-.425-8.063 1.789-9.647 5.785-.147.37-.534 1.885-.534 3.677-.327 5.942 5.401 10.42 11.606 9.074 1.683-.365 3.229-1.04 4.567-2.135.453-.374.738-.543 1.161.054 3.757 5.294 7.537 10.567 11.303 15.855.141.196.19.458.282.684-1.51.858-2.967 1.804-4.555 2.554-4.884 2.31-10.018 3.52-15.395 3.692-3.949.126-7.84-.458-11.612-1.533-2.044-.581-4.105-1.226-5.992-2.376-.799-.488-3.97-2.457-4.48-2.84-1.387-1.042-2.67-2.204-3.805-3.526-3.405-3.979-5.728-8.493-6.745-13.658l.003.006Z" opacity=".5"/>
    <path fill="#499BFE" d="M21.437 55.944c-1.215-8.652-.045-16.792 5.401-23.89 5.128-6.682 12.158-10.194 20.295-11.522 8.189-1.337 16.077-.15 23.56 3.506.85.415 1.63.96 2.458 1.418.675.374.75.843.312 1.443-1.098 1.102-1.857 2.454-2.73 3.719-2.73 3.945-5.422 7.92-8.138 11.874-.444.648-.864.949-1.665.26-1.602-1.374-3.574-1.916-5.65-2.118-4.363-.425-8.063 1.789-9.647 5.785-.147.37-.534 1.885-.534 3.677-.327 5.942 5.401 10.42 11.606 9.074 1.684-.365 3.229-1.04 4.567-2.135.453-.374.738-.542 1.161.054 3.757 5.294 7.538 10.567 11.303 15.855.141.196.19.458.282.684-1.51.858-2.967 1.804-4.555 2.554-4.884 2.31-10.018 3.52-15.395 3.692-3.949.126-7.84-.458-11.612-1.533-2.044-.581-4.105-1.226-5.992-2.376-.798-.488-3.97-2.457-4.48-2.84-1.386-1.042-2.67-2.204-3.805-3.526-3.405-3.978-5.728-8.493-6.745-13.658l.003.003Z"/>
  </g>
</svg>
