<svg xmlns="http://www.w3.org/2000/svg" width="49" height="65" fill="none" viewBox="0 0 49 65">
  <path fill="#499BFE" d="M49 6.136c.012.614-.452.794-.898.847-1.538.18-3.028.585-4.516.977-3.198.837-6.393 1.689-9.254 3.46-.628.39-.989.68-.693 1.57.858 2.591 1.873 5.086 3.336 7.398 1.4 2.208 1.352 4.691 1.178 7.179-.034.495-.086.991-.131 1.487-.034.365.019.647.439.794.351.125.724.356.673.806a.896.896 0 0 1-.852.793c-.92.039-1.173.7-1.54 1.352-1.054 1.865-2.72 3.147-4.3 4.52-1.857 1.615-3.49 3.273-4.126 5.912-1.027 4.25-2.45 8.408-3.79 12.58-.272.849-.007 1.03.68 1.034 1.006.01 1.94.315 2.828.727 1.538.716 1.622 1.965 1.015 3.548-.473 1.232-1.21.854-1.984 1.068-2.078.573-3.692-.62-5.419-1.299-1.1-.43-2.125-.683-3.293-.402-.564.137-1.283.291-1.639-.39-.36-.687-.06-1.31.416-1.871.855-1.01 1.894-1.65 3.24-1.569.557.037.837-.158.975-.659 1.383-4.946 2.77-9.892 4.139-14.841.055-.195.258-.404-.029-.753-.774.734-1.815 1.15-2.362 2.15-3.21 5.88-6.405 11.77-9.631 17.64-.26.474-.108.762.16 1.087.434.53.867 1.059 1.08 1.725.221.703-.039 1.321-.512 1.778-.408.392-.929.183-1.366-.096-1.736-1.104-3.613-.53-5.416-.378-1.048.09-2.125.017-3.162.34-.511.158-.98-.164-1.046-.638-.086-.592-.253-.813-.87-.825-.668-.012-.866-.515-.79-1.138.184-1.53 1.88-3.18 3.413-3.37 1.574-.196 3.097.047 4.585.51.526.163.771.16 1.049-.374 3-5.773 6.02-11.533 9.048-17.29.425-.806.136-1.143-.678-1.195-4.86-.304-9.457-1.706-13.925-3.53-1.342-.546-2.692-.226-4.01-.55-.48-.119-.917-.203-1.01-.72-.088-.505.332-.717.719-.897.239-.111.48-.224.73-.303.982-.313 1.417-.845 1.49-2.01.12-1.818 1.245-3.226 2.642-4.356.222-.178.65-.467.802-.205.535.929 2.212.732 2.028 2.327 5.378-3.43 10.458-7.21 17.207-7.658-.877-.628-1.698-1.02-2.171-1.823-.571-.968-.33-1.509.804-1.569.908-.048 1.823-.012 2.732.024.533.022.874.072.583-.693-.232-.61-.033-1.157.834-1.017.547.089.547-.195.399-.604-.588-1.631-1.166-3.27-1.773-4.978-.933.958-1.721 1.958-2.827 2.577-1.156.647-2.352 1.044-3.64.32-.36-.205-.773-.363-.79-.871-.014-.53.396-.683.778-.861.963-.445 1.694-1.028 2.541-1.665a9.216 9.216 0 0 0 .519-.453c.03-.028.06-.055.088-.084.029-.026.055-.053.081-.08.986-1.024-.062-1.435.557-2.67l.03-.06c.636-1.215 1.202-.514 1.245-1.684.043-1.19.874-1.984.874-1.984s-.239-2.815 3.85-3.879c4.793-1.246 5.514 1.004 6.17 1.17.306.077.686.267 1.049.478a3.684 3.684 0 0 1 1.275 1.256c.237.388.356.835.37 1.29l.02.5c.083.236.52.092.764.096 1.9.022 3.802 0 5.7.036.793.015 1.584.157 2.376.203.504.026.92.108.932.733Z"/>
</svg>
