<svg xmlns="http://www.w3.org/2000/svg" width="50" height="56" fill="none" viewBox="0 0 50 56">
  <path fill="#499BFE" d="M.405 33.282c-1.126-8.011-.042-15.548 5-22.12 4.749-6.188 11.258-9.44 18.793-10.67C31.78-.744 39.084.354 46.013 3.74c.786.384 1.508.89 2.275 1.313.625.346.695.78.289 1.336-1.017 1.02-1.72 2.272-2.528 3.443-2.529 3.653-5.02 7.334-7.535 10.995-.411.6-.8.878-1.542.24-1.483-1.272-3.309-1.774-5.231-1.96-4.04-.394-7.465 1.656-8.933 5.356-.136.343-.494 1.746-.494 3.405-.303 5.501 5 9.648 10.746 8.401 1.559-.337 2.99-.962 4.229-1.977.42-.345.683-.502 1.075.05 3.478 4.903 6.979 9.785 10.466 14.682.13.18.175.423.26.633-1.397.794-2.747 1.67-4.217 2.364-4.523 2.139-9.276 3.26-14.255 3.419-3.656.117-7.26-.424-10.752-1.42-1.892-.538-3.8-1.134-5.548-2.2-.739-.451-3.675-2.275-4.148-2.63-1.283-.964-2.472-2.04-3.523-3.264C3.494 42.24 1.344 38.06.402 33.279l.003.003Z"/>
</svg>
