<svg xmlns="http://www.w3.org/2000/svg" width="100" height="100" fill="none" viewBox="0 0 100 100">
  <circle cx="50" cy="50" r="50" fill="#fff"/>
  <g opacity=".5">
    <path fill="#499BFE" d="M33.66 81.219c-1.915-.882-3.366-2.36-4.767-3.853-3.972-4.23-6.78-9.076-7.575-14.918a35.496 35.496 0 0 1-.175-7.93c.165-1.89.323-3.762.799-5.609.867-3.359 2.286-6.471 4.116-9.395 3.135-5.013 6.994-9.476 10.802-13.974.201-.239.438-.497.79-.556-.218 1.262-.8 2.41-1.179 3.621-.637 2.044-1.155 4.07-.999 6.233.21 2.888 2.018 5.263 4.823 6.078.973.844 2.284 1.059 3.322 1.782.616.429 1.278.799 1.852 1.277 2.093 1.739 2.286 4.058.989 6.304-.794 1.377-1.988 2.4-3.206 3.365-2.27 1.796-4.659 3.455-6.657 5.564-.706.744-1.381 1.561-1.782 2.541-.495.193-.521.721-.76 1.09-2.217 3.43-3.1 7.213-2.748 11.25.109 1.241.12 2.537.697 3.708.558 1.136 1.103 2.28 1.656 3.42l.002.002ZM77.609 48.03c.666.175.72.807.917 1.29 1.565 3.839 1.644 7.832 1.32 11.89-.134 1.689-.27 3.366-.657 5.015-.817 3.479-2.524 6.502-4.821 9.223-2.496 2.957-5.194 5.686-8.695 7.492-1.551.8-3.211 1.324-4.863 1.894-3.262 1.123-6.615 1.4-10.013 1.452-2.698.04-5.346-.339-8.133-1.086 1.107-.356 2.125.072 3.053-.292.282-.08.56-.19.849-.239 5.123-.855 9.486-5.482 9.514-11.138.538-.92.282-1.957.424-2.933.484-3.328 1.233-6.543 3.485-9.206 1.26-1.489 2.943-2.146 4.814-2.522 1.464-.295 3.001-.235 4.392-.878.358.088.674.045 1.033-.114.998-.444 2.084-.718 3.043-1.229 1.827-.974 3.621-1.96 4.26-4.226.425-1.502.227-2.927.08-4.392h-.002Z"/>
    <path fill="#499BFE" d="M56.031 73.766c-.027 5.722-4.414 10.403-9.56 11.268-.29.05-.569.158-.852.241-4.447.525-8.192-1.266-11.786-3.552-.105-.068-.17-.194-.253-.293-.554-1.148-1.103-2.296-1.664-3.438-.58-1.178-.591-2.48-.7-3.727-.353-4.06.535-7.861 2.76-11.311.24-.372.266-.903.764-1.095 2.06 7.005 6.702 11.183 13.885 12.465 2.484.444 4.973.097 7.406-.556v-.002Zm21.487-25.768c.148 1.49.346 2.938-.08 4.466-.64 2.303-2.437 3.306-4.267 4.297-.96.52-2.046.798-3.048 1.25-.36.162-.674.204-1.034.115-.146-1.112.07-2.24-.211-3.358-.567-2.258-1.955-4.548-5.24-4.646-.913-.028-1.824-.223-2.733-.352-.461-.066-.902-.215-1.275-.5-.682-.523-.65-1.46.098-1.885.45-.255.975-.374 1.455-.577.364-.153.8-.313.816-.768.016-.482-.436-.605-.804-.742-2.15-.8-4.378-1.124-6.663-1.116-1.022.004-2.283.15-2.6-1.063-.284-1.092.7-1.88 1.533-2.439 2.52-1.69 5.226-2.767 8.359-2.789 3.555-.024 6.781.82 9.746 2.785 1.745 1.158 3.356 2.43 4.528 4.218.637.97 1.052 2.021 1.418 3.105l.002-.002Zm-37.287-7.344c-2.857-.81-4.7-3.172-4.913-6.044-.16-2.154.366-4.166 1.018-6.199.386-1.206.98-2.346 1.2-3.6l-.006.011c.143-.06.203-.166.185-.317.98-1.803 2.454-3.239 3.82-4.738 1.908-2.097 3.937-4.089 6.04-6.004.507-.462.996-.988 1.828-.661.875.344 1.3.947 1.336 1.87.078 2.024-.686 3.818-1.549 5.588-.627 1.288-1.43 2.496-1.856 3.876-.474 1.532.302 2.348 1.903 2 .259-.057.518-.124.78-.173.559-.104.981.094 1.265.574.283.478.1.873-.227 1.245-1.5 1.707-3.017 3.4-4.497 5.124-2.124 2.473-4.22 4.966-6.327 7.45v-.002ZM56.95 18.512c-.03 1.557-1.258 3.171-2.741 3.606-1.246.364-2.24-.277-2.322-1.5-.098-1.471 1.383-3.428 2.906-3.84 1.302-.352 2.187.355 2.16 1.734h-.003Z" opacity=".5"/>
    <path fill="#499BFE" d="M55.532 47.11c-.426-.039-.85-.143-.881-.848-.033-.74.343-.985.89-.996.55-.01.962.264.951.954-.01.627-.405.879-.96.89Zm.928-20.282c-.564-.08-.908-.384-.889-.968.022-.585.368-.9.948-.874.568.025.923.364.893.93-.029.55-.399.859-.951.912Zm-3.5 23.047c-.269-.03-.658.056-.613-.416.046-.464.437-.52.776-.503.253.014.647-.09.6.402-.046.471-.444.493-.763.517Z" opacity=".5"/>
    <path fill="#C8E1FF" d="M38.047 24.523c.042.22-.097.373-.428.461-.088-.233.051-.39.428-.46Z"/>
  </g>
</svg>
