<svg xmlns="http://www.w3.org/2000/svg" width="100" height="100" fill="none" viewBox="0 0 100 100">
  <circle cx="50" cy="50" r="50" fill="#fff"/>
  <path fill="#499BFE" d="M76 22.514c.012.651-.48.843-.953.899-1.632.191-3.214.62-4.793 1.037-3.393.888-6.784 1.793-9.82 3.672-.667.414-1.05.723-.735 1.668.91 2.75 1.987 5.398 3.54 7.853 1.485 2.344 1.435 4.98 1.25 7.62-.036.526-.092 1.053-.14 1.579-.035.388.02.687.467.842.372.133.768.378.714.856a.95.95 0 0 1-.904.843c-.976.04-1.245.743-1.635 1.435-1.118 1.979-2.887 3.34-4.562 4.798-1.972 1.714-3.705 3.474-4.38 6.275-1.089 4.513-2.6 8.926-4.021 13.354-.29.902-.008 1.093.722 1.098 1.067.01 2.058.335 3 .771 1.633.761 1.721 2.087 1.078 3.767-.502 1.308-1.285.907-2.106 1.134-2.205.608-3.918-.659-5.75-1.379-1.169-.457-2.256-.725-3.496-.426-.598.145-1.36.309-1.738-.414-.383-.73-.063-1.392.44-1.987.908-1.072 2.01-1.752 3.44-1.665.59.038.887-.169 1.034-.7 1.467-5.25 2.94-10.501 4.392-15.754.058-.207.274-.43-.03-.8-.822.78-1.927 1.221-2.507 2.283-3.406 6.242-6.797 12.494-10.22 18.725-.277.503-.115.81.169 1.154.461.562.92 1.124 1.145 1.831.236.746-.04 1.403-.542 1.888-.433.416-.986.194-1.45-.102-1.842-1.173-3.834-.562-5.748-.401-1.112.094-2.255.018-3.355.36-.542.168-1.04-.174-1.11-.677-.091-.628-.269-.863-.922-.876-.71-.013-.92-.547-.84-1.208.196-1.624 1.995-3.376 3.622-3.578 1.67-.207 3.287.051 4.866.542.558.173.819.17 1.113-.396 3.183-6.13 6.389-12.243 9.602-18.355.451-.855.145-1.212-.72-1.269-5.157-.322-10.035-1.81-14.777-3.746-1.424-.58-2.856-.24-4.255-.585-.51-.125-.974-.214-1.072-.764-.094-.536.352-.76.762-.952.254-.118.51-.238.776-.322 1.042-.332 1.503-.896 1.581-2.132.127-1.931 1.32-3.425 2.803-4.625.236-.19.69-.496.852-.217.568.985 2.347.776 2.152 2.47 5.707-3.643 11.097-7.655 18.26-8.13-.93-.666-1.802-1.083-2.304-1.935-.606-1.027-.35-1.602.854-1.665.963-.052 1.934-.013 2.9.025.564.023.927.077.618-.735-.246-.65-.036-1.229.884-1.08.58.094.58-.208.423-.642-.623-1.731-1.236-3.47-1.88-5.284-.991 1.017-1.827 2.08-3 2.735-1.227.688-2.497 1.109-3.863.34-.383-.217-.821-.385-.839-.924-.015-.562.42-.726.826-.915 1.022-.472 1.797-1.09 2.697-1.767a9.738 9.738 0 0 0 .55-.48 1.99 1.99 0 0 0 .093-.09c.03-.027.059-.055.087-.084 1.046-1.087-.066-1.524.59-2.834.01-.023.023-.044.033-.064.674-1.29 1.275-.547 1.32-1.788.046-1.264.928-2.107.928-2.107s-.253-2.988 4.085-4.116c5.087-1.323 5.852 1.064 6.55 1.24.324.082.727.284 1.112.509a3.913 3.913 0 0 1 1.353 1.333c.251.411.378.886.393 1.369l.02.531c.089.25.553.097.811.102 2.017.023 4.035 0 6.05.038.841.016 1.68.166 2.521.215.535.028.976.115.989.779Z" opacity=".5"/>
</svg>
