<svg xmlns="http://www.w3.org/2000/svg" width="56" height="70" fill="none" viewBox="0 0 56 70">
  <path fill="#499BFE" d="M12.014 64.74c-1.817-.838-3.194-2.24-4.524-3.657C3.72 57.07 1.057 52.47.302 46.926A33.69 33.69 0 0 1 .135 39.4c.158-1.793.308-3.57.759-5.322.822-3.188 2.17-6.142 3.906-8.916 2.975-4.757 6.637-8.993 10.251-13.262.191-.226.416-.47.75-.527-.207 1.198-.76 2.287-1.119 3.436-.605 1.94-1.096 3.862-.948 5.915.199 2.741 1.915 4.994 4.577 5.768.923.801 2.167 1.005 3.153 1.69.584.408 1.212.76 1.757 1.213 1.986 1.65 2.17 3.851.939 5.983-.754 1.306-1.887 2.277-3.043 3.193-2.154 1.704-4.421 3.279-6.317 5.28-.67.706-1.311 1.482-1.692 2.412-.47.183-.494.684-.72 1.033-2.105 3.257-2.942 6.846-2.609 10.678.103 1.177.115 2.406.662 3.518.53 1.078 1.047 2.164 1.571 3.245l.002.002Zm41.707-31.496c.633.165.684.765.871 1.224 1.485 3.643 1.56 7.432 1.253 11.283-.127 1.603-.257 3.194-.624 4.76-.775 3.3-2.395 6.17-4.575 8.752-2.37 2.806-4.93 5.396-8.252 7.11-1.472.76-3.047 1.257-4.614 1.797-3.096 1.066-6.278 1.33-9.503 1.378-2.56.039-5.074-.321-7.718-1.03 1.05-.339 2.017.068 2.897-.277.268-.076.532-.18.806-.227 4.861-.811 9.002-5.203 9.029-10.57.51-.873.267-1.857.402-2.784.46-3.158 1.17-6.209 3.308-8.736 1.195-1.413 2.792-2.037 4.568-2.393 1.39-.28 2.848-.223 4.168-.834.34.084.639.043.98-.108.947-.421 1.978-.681 2.888-1.166 1.734-.924 3.436-1.86 4.043-4.01.403-1.426.216-2.778.075-4.169h-.002Z"/>
  <path fill="#499BFE" d="M33.245 57.667c-.027 5.43-4.19 9.872-9.073 10.693-.275.047-.54.15-.81.229-4.218.498-7.773-1.202-11.183-3.372-.1-.064-.162-.184-.241-.278-.525-1.09-1.046-2.178-1.58-3.262-.549-1.118-.56-2.354-.663-3.537-.335-3.852.508-7.46 2.62-10.734.227-.353.251-.857.724-1.039 1.955 6.647 6.36 10.612 13.177 11.83 2.358.42 4.72.091 7.029-.528v-.002Zm20.39-24.455c.14 1.414.328 2.789-.075 4.239-.608 2.186-2.313 3.138-4.05 4.078-.911.493-1.941.757-2.892 1.186-.342.154-.64.194-.981.11-.139-1.056.065-2.127-.2-3.188-.54-2.143-1.856-4.316-4.974-4.408-.866-.027-1.73-.212-2.594-.334-.437-.063-.855-.204-1.21-.474-.647-.497-.617-1.386.094-1.79.426-.242.925-.355 1.38-.548.346-.145.76-.296.775-.728.015-.457-.414-.574-.763-.704-2.04-.76-4.155-1.067-6.323-1.06-.97.004-2.167.144-2.467-1.008-.27-1.036.664-1.784 1.454-2.314 2.391-1.605 4.96-2.627 7.933-2.647 3.374-.023 6.435.777 9.249 2.643 1.656 1.098 3.185 2.305 4.297 4.002.604.922.998 1.918 1.345 2.947l.002-.002ZM18.25 26.244c-2.712-.77-4.46-3.01-4.662-5.736-.153-2.044.347-3.954.966-5.883.366-1.145.929-2.226 1.139-3.417l-.006.011c.136-.057.193-.158.176-.3.93-1.712 2.328-3.074 3.624-4.498A86.07 86.07 0 0 1 25.22.725c.48-.439.945-.939 1.735-.629.83.327 1.233.9 1.267 1.775.074 1.921-.65 3.623-1.47 5.303-.595 1.223-1.356 2.37-1.761 3.68-.45 1.452.286 2.227 1.805 1.896.247-.054.493-.117.74-.163.531-.099.932.089 1.201.544.27.454.096.829-.215 1.182-1.424 1.62-2.863 3.226-4.268 4.863-2.015 2.346-4.004 4.712-6.004 7.07v-.002ZM34.117 5.23c-.028 1.478-1.194 3.01-2.602 3.422-1.182.346-2.125-.263-2.203-1.423-.094-1.396 1.312-3.253 2.757-3.645 1.236-.334 2.076.338 2.05 1.646h-.002Z" opacity=".5"/>
  <path fill="#499BFE" d="M32.771 32.37c-.405-.037-.808-.136-.837-.805-.03-.703.326-.935.846-.945.521-.01.912.25.902.905-.01.596-.384.834-.91.844Zm.881-19.247c-.536-.077-.863-.364-.844-.92.02-.554.349-.853.9-.829.539.025.875.346.847.884-.027.521-.378.814-.903.865ZM30.33 34.995c-.255-.029-.625.052-.581-.395.043-.44.414-.495.736-.478.24.013.614-.084.569.382-.044.447-.421.468-.724.49Z" opacity=".5"/>
  <path fill="#C8E1FF" d="M16.178 10.935c.04.208-.093.354-.406.438-.084-.221.048-.37.406-.438Z"/>
</svg>
