<svg xmlns="http://www.w3.org/2000/svg" width="114" height="115" fill="none" viewBox="0 0 114 115">
  <path fill="url(#a)" d="M4 0h110v110H4V0Z"/>
  <path fill="#499BFE" d="M27.687 75.177c-1.896 2.852-4.348 5.684-7.354 7.509C15.959 85.343 8.656 92.605 4 97.44v-8.31c4.425-4.39 9.636-9.195 13.306-11.42 3.047-1.856 5.458-5.32 7.113-8.367.596 2.451 1.732 4.502 3.222 5.797.016.01.031.026.046.036Z"/>
  <path fill="#499BFE" d="M33.608 76.93c-2.045 3.618-5.026 7.704-8.948 10.089-4.301 2.616-11.44 9.687-16.107 14.523H4v-3.68c4.852-5.046 12.663-12.801 17.633-15.823 2.518-1.532 4.605-4.168 6.183-6.759.462.38.946.679 1.485.92 1.203.54 2.652.787 4.307.73Z"/>
  <path fill="#499BFE" d="M42.458 84.94c-2.477 4.277-5.648 8.62-9.133 10.742-1.999 1.213-4.61 3.387-7.303 5.859h-8.444c4.297-4.224 9.215-8.711 12.72-10.839 2.128-1.295 4.21-3.921 6.029-6.82-1.897 2.837-4.343 5.648-7.334 7.468-3.125 1.901-7.756 6.151-11.836 10.191H8.965c4.867-5.037 12.236-12.278 17-15.171 3.418-2.082 6.034-6.178 7.684-9.447.139-.005.278-.01.416-.02 2.724-.17 5.484-1.09 7.319-1.83l.175-.072c.035-.015.077-.03.113-.046-.555 2.364-1.203 6.686.555 9.626.03.062.067.118.087.15.046.071.093.143.144.21Z"/>
  <path fill="#499BFE" d="M47.469 88.199c-.15.329-.314.678-.489 1.038 0 .005 0 .01-.01.016-2.04 3.767-5.144 8.222-9.312 10.756-.674.411-1.419.925-2.21 1.532h-8.979c2.945-2.693 5.86-5.109 8.162-6.507 3.592-2.184 6.29-6.599 7.935-9.94a5.76 5.76 0 0 0 1.521 1.414c.303.19.596.365.879.524.128.077.257.144.35.19.2.114.395.216.565.293.149.078.303.15.452.216.38.175.77.33 1.136.468Z"/>
  <path fill="#499BFE" d="M53.662 88.544c-1.12 2.816-3.834 8.752-8.146 12.997h-9.647c1.105-.863 2.149-1.608 3.09-2.179 3.648-2.22 6.382-6.748 8.011-10.109.006-.005.006-.01.01-.015.19-.35.366-.69.535-1.023.026.01.057.015.088.03 1.223.427 2.405.638 3.566.638a9.34 9.34 0 0 0 2.493-.34Zm40.513-54.318C91.4 23.382 82.165 15.54 71.82 13.586c-1.932-.36-14.54-2.513-24.078 6.692-6.897 6.655-9.605 16.754-7.113 26.38-6.044 2.308-9.77 7.422-11.404 9.672-1.948 2.673-5.067 6.96-4.26 11.99.025.206.066.417.113.628.143.632.837 3.726 3.016 5.617.036.03.067.062.103.087.416.35.879.648 1.403.884 1.326.596 2.868.746 4.42.643 2.688-.17 5.407-1.1 7.087-1.778.062-.026.118-.052.175-.072.874-.36 1.429-.638 1.496-.668-.072.23-2.19 6.794.087 10.566a4.952 4.952 0 0 0 1.614 1.665 20.008 20.008 0 0 0 1.197.7c.18.102.36.195.54.277.139.072.277.138.416.2.386.175.766.33 1.136.463.026.01.051.015.077.025 2.287.797 4.291.75 6.147.129 3.13-1.043 5.833-3.716 8.752-6.687.704-.719 4.661-5.601 5.597-12.195 1.614.185 4.06.298 6.917-.37 7.458-1.742 11.713-7.355 13.378-9.554 1.979-2.611 8.68-12.407 5.54-24.654Zm-43.19-4.96c1.67-2.41 4.887-3.186 7.323-1.767 2.071 1.207 3.078 3.746 2.456 6.177a.729.729 0 0 1-.884.53.724.724 0 0 1-.524-.885c.463-1.803-.272-3.674-1.778-4.558-1.778-1.038-4.148-.452-5.391 1.341a.732.732 0 0 1-1.013.185.732.732 0 0 1-.185-1.012l-.005-.01ZM83.5 51.855c-.267 2.513-10.87 6.352-22.731.56-8.63-4.209-12.936-13.737-11.307-15.53 1.012-1.116 4.147 1.253 16.523 6.778 13.614 6.075 17.67 6.712 17.515 8.192Zm4.21-6.162a.729.729 0 0 1-.885.53.724.724 0 0 1-.524-.885c.462-1.798-.272-3.674-1.778-4.558-1.778-1.038-4.148-.453-5.391 1.341a.732.732 0 0 1-1.013.185.732.732 0 0 1-.185-1.012c1.675-2.41 4.888-3.187 7.324-1.768 2.07 1.208 3.078 3.746 2.456 6.177l-.005-.01Z"/>
  <g filter="url(#b)">
    <path fill="#fff" d="M26.646 84.854c-1.813 2.727-4.157 5.434-7.031 7.179-4.181 2.54-11.163 9.483-15.615 14.106v-7.945c4.23-4.196 9.213-8.79 12.721-10.918 2.914-1.773 5.218-5.085 6.8-7.999.57 2.344 1.656 4.305 3.08 5.543.016.01.03.024.045.034Z"/>
    <path fill="#fff" d="M32.306 86.53c-1.955 3.459-4.805 7.365-8.554 9.644-4.112 2.501-10.937 9.262-15.399 13.886H4v-3.518c4.638-4.825 12.107-12.24 16.858-15.129 2.408-1.464 4.403-3.984 5.911-6.46.442.363.904.648 1.42.879 1.15.516 2.535.751 4.117.697Z"/>
    <path fill="#fff" d="M40.767 94.19c-2.368 4.087-5.4 8.239-8.73 10.269-1.912 1.159-4.408 3.238-6.983 5.601h-8.073c4.108-4.039 8.81-8.328 12.161-10.363 2.034-1.238 4.024-3.749 5.764-6.52-1.813 2.712-4.152 5.4-7.012 7.14-2.987 1.818-7.414 5.881-11.316 9.743H8.746C13.4 105.245 20.446 98.322 25 95.555c3.267-1.99 5.768-5.906 7.346-9.03.132-.006.265-.01.398-.02 2.604-.162 5.242-1.042 6.996-1.75l.167-.068.109-.044c-.531 2.26-1.15 6.392.53 9.203a2.89 2.89 0 0 0 .221.344Z"/>
    <path fill="#fff" d="M45.558 97.304c-.142.314-.3.648-.467.992 0 .005 0 .01-.01.015-1.95 3.602-4.918 7.861-8.903 10.284a24.58 24.58 0 0 0-2.112 1.464h-8.584c2.815-2.575 5.601-4.884 7.802-6.22 3.435-2.089 6.014-6.31 7.587-9.503.407.54.894.997 1.454 1.351a20.535 20.535 0 0 0 1.174.683c.192.108.379.206.54.28a17.272 17.272 0 0 0 1.519.654Z"/>
    <path fill="#fff" d="M51.479 97.634c-1.071 2.692-3.666 8.367-7.788 12.426h-9.223c1.057-.826 2.054-1.538 2.953-2.083 3.49-2.123 6.103-6.452 7.66-9.665.005-.005.005-.01.01-.015.182-.334.35-.658.511-.978.025.01.055.015.084.03 1.17.408 2.3.61 3.41.61.8 0 1.597-.109 2.383-.325Zm38.733-51.931c-2.654-10.367-11.483-17.865-21.374-19.732-1.847-.344-13.9-2.403-23.02 6.397-6.593 6.363-9.183 16.018-6.8 25.221-5.778 2.206-9.34 7.095-10.903 9.247-1.862 2.555-4.844 6.653-4.073 11.463.025.197.064.398.108.6.138.604.801 3.562 2.884 5.37.035.03.064.059.099.084.398.334.84.619 1.341.845 1.268.57 2.742.712 4.226.614 2.57-.162 5.168-1.052 6.775-1.7.06-.025.113-.05.167-.069.836-.344 1.366-.61 1.43-.639-.069.221-2.093 6.496.084 10.102.02.04.039.074.063.109.369.58.855 1.09 1.48 1.483a18.968 18.968 0 0 0 1.144.669c.172.098.344.186.516.265.133.069.265.133.398.192.369.167.732.314 1.086.442.025.01.05.014.074.024 2.186.762 4.102.718 5.876.123 2.993-.997 5.577-3.552 8.368-6.392.673-.688 4.456-5.356 5.35-11.66 1.544.177 3.882.285 6.614-.354 7.13-1.665 11.198-7.03 12.79-9.134 1.892-2.496 8.299-11.86 5.297-23.57Zm-41.293-4.741c1.597-2.305 4.673-3.047 7.002-1.69 1.98 1.154 2.943 3.581 2.348 5.906a.697.697 0 0 1-.845.506.692.692 0 0 1-.501-.845c.442-1.725-.26-3.514-1.7-4.359-1.7-.992-3.965-.432-5.154 1.283a.7.7 0 0 1-.968.177.7.7 0 0 1-.177-.968l-.005-.01Zm31.087 21.594c-.255 2.403-10.392 6.073-21.732.536-8.25-4.024-12.367-13.134-10.81-14.849.968-1.066 3.966 1.2 15.797 6.481 13.016 5.808 16.893 6.417 16.745 7.833Zm4.025-5.89a.697.697 0 0 1-.846.505.692.692 0 0 1-.5-.845c.441-1.72-.261-3.513-1.7-4.358-1.7-.993-3.966-.432-5.155 1.282a.7.7 0 0 1-.968.177.7.7 0 0 1-.177-.968c1.602-2.304 4.673-3.046 7.002-1.69 1.98 1.155 2.943 3.582 2.349 5.906l-.005-.01Z"/>
  </g>
  <defs>
    <radialGradient id="a" cx="0" cy="0" r="1" gradientTransform="matrix(0 55 -55 0 59 55)" gradientUnits="userSpaceOnUse">
      <stop offset=".089" stop-color="#0074FF"/>
      <stop offset=".833" stop-color="#499BFE"/>
    </radialGradient>
    <filter id="b" width="95" height="92.541" x="0" y="21.519" color-interpolation-filters="sRGB" filterUnits="userSpaceOnUse">
      <feFlood flood-opacity="0" result="BackgroundImageFix"/>
      <feColorMatrix in="SourceAlpha" result="hardAlpha" values="0 0 0 0 0 0 0 0 0 0 0 0 0 0 0 0 0 0 127 0"/>
      <feOffset/>
      <feGaussianBlur stdDeviation="2"/>
      <feComposite in2="hardAlpha" operator="out"/>
      <feColorMatrix values="0 0 0 0 0.286275 0 0 0 0 0.607843 0 0 0 0 0.996078 0 0 0 1 0"/>
      <feBlend in2="BackgroundImageFix" result="effect1_dropShadow_416_883"/>
      <feBlend in="SourceGraphic" in2="effect1_dropShadow_416_883" result="shape"/>
    </filter>
  </defs>
</svg>
