<svg xmlns="http://www.w3.org/2000/svg" width="114" height="115" fill="none" viewBox="0 0 114 115">
  <path fill="url(#a)" d="M4 0h110v110H4V0Z"/>
  <path fill="#499BFE" d="M27.687 75.177c-1.896 2.852-4.348 5.684-7.354 7.508C15.959 85.342 8.656 92.605 4 97.44v-8.31c4.425-4.39 9.636-9.194 13.306-11.42 3.047-1.855 5.458-5.32 7.113-8.367.596 2.452 1.732 4.502 3.222 5.797.016.01.031.026.046.037Z"/>
  <path fill="#499BFE" d="M33.608 76.93c-2.045 3.618-5.026 7.703-8.948 10.088-4.301 2.616-11.44 9.688-16.107 14.524H4v-3.68c4.852-5.047 12.663-12.802 17.633-15.824 2.518-1.531 4.605-4.168 6.183-6.758.462.38.946.678 1.485.92 1.203.54 2.652.786 4.307.73Z"/>
  <path fill="#499BFE" d="M42.458 84.94c-2.477 4.277-5.648 8.62-9.133 10.742-1.999 1.213-4.61 3.387-7.303 5.859h-8.444c4.297-4.224 9.215-8.711 12.72-10.839 2.128-1.295 4.21-3.921 6.029-6.82-1.897 2.837-4.343 5.648-7.334 7.468-3.125 1.901-7.756 6.151-11.836 10.191H8.965c4.867-5.037 12.236-12.278 17-15.171 3.418-2.082 6.034-6.178 7.684-9.447.139-.005.278-.01.416-.02 2.724-.17 5.484-1.09 7.319-1.83l.175-.072c.035-.015.077-.03.113-.046-.555 2.364-1.203 6.686.555 9.626.03.062.067.118.087.15.046.071.093.143.144.21Z"/>
  <path fill="#499BFE" d="M47.469 88.2c-.15.328-.314.678-.488 1.038 0 .005 0 .01-.01.015-2.041 3.767-5.145 8.223-9.313 10.757-.674.411-1.419.925-2.21 1.531h-8.979c2.945-2.693 5.86-5.108 8.162-6.506 3.592-2.184 6.29-6.6 7.935-9.94a5.762 5.762 0 0 0 1.521 1.413c.303.19.596.365.879.525.128.077.257.144.35.19.2.113.395.216.565.293.149.077.303.149.452.216.38.174.77.329 1.136.467Z"/>
  <path fill="#499BFE" d="M53.662 88.544c-1.12 2.817-3.834 8.753-8.146 12.998H35.87c1.104-.864 2.148-1.609 3.088-2.18 3.65-2.22 6.383-6.747 8.013-10.108.005-.006.005-.01.01-.016.19-.35.365-.689.534-1.023.026.01.057.016.088.031 1.223.427 2.405.637 3.566.637a9.38 9.38 0 0 0 2.493-.339Z"/>
  <g filter="url(#b)">
    <path fill="#fff" d="M26.646 84.854c-1.813 2.727-4.157 5.434-7.031 7.178C15.434 94.572 8.452 101.515 4 106.14v-7.945c4.23-4.196 9.213-8.79 12.721-10.918 2.914-1.774 5.218-5.085 6.8-8 .57 2.345 1.656 4.305 3.08 5.543.016.01.03.025.045.035Z"/>
    <path fill="#fff" d="M32.306 86.529c-1.955 3.459-4.805 7.365-8.554 9.645-4.112 2.501-10.937 9.262-15.399 13.885H4v-3.518c4.638-4.825 12.107-12.239 16.858-15.128 2.408-1.464 4.403-3.985 5.911-6.461.442.363.904.648 1.42.88 1.15.515 2.535.75 4.117.697Z"/>
    <path fill="#fff" d="M40.767 94.19c-2.368 4.087-5.4 8.239-8.73 10.269-1.912 1.159-4.408 3.238-6.983 5.601h-8.073c4.108-4.039 8.81-8.328 12.161-10.363 2.034-1.238 4.024-3.749 5.764-6.52-1.813 2.712-4.152 5.4-7.012 7.14-2.987 1.818-7.414 5.881-11.316 9.743H8.746C13.4 105.245 20.446 98.322 25 95.555c3.268-1.99 5.768-5.906 7.346-9.03.132-.006.265-.01.398-.02 2.604-.162 5.242-1.042 6.996-1.75l.168-.068c.034-.015.073-.03.108-.044-.531 2.26-1.15 6.392.53 9.203a2.627 2.627 0 0 0 .221.343Z"/>
    <path fill="#fff" d="M45.558 97.304c-.142.315-.3.649-.467.993 0 .005 0 .01-.01.014-1.95 3.602-4.918 7.862-8.903 10.284a24.61 24.61 0 0 0-2.112 1.465h-8.584c2.815-2.575 5.601-4.884 7.802-6.221 3.435-2.088 6.014-6.309 7.587-9.503.407.54.894.998 1.454 1.352a20.476 20.476 0 0 0 1.714.963c.143.073.29.142.433.206.364.167.737.314 1.086.447Z"/>
    <path fill="#fff" d="M51.479 97.633c-1.071 2.693-3.666 8.368-7.788 12.426h-9.223c1.057-.825 2.054-1.537 2.953-2.083 3.489-2.122 6.103-6.451 7.66-9.665.005-.005.005-.01.01-.014.182-.334.35-.659.511-.978.025.01.054.015.084.03 1.17.407 2.3.609 3.41.609.8 0 1.597-.108 2.383-.325Zm38.733-51.93c-2.654-10.367-11.483-17.865-21.374-19.732-1.847-.344-13.9-2.403-23.02 6.397-6.593 6.363-9.183 16.018-6.8 25.221-5.778 2.206-9.34 7.095-10.903 9.247-1.862 2.555-4.844 6.653-4.073 11.463.025.197.064.398.108.6.138.604.801 3.562 2.884 5.37.035.03.064.059.099.084.398.334.84.619 1.341.845 1.268.57 2.742.712 4.226.614 2.57-.162 5.169-1.052 6.775-1.7.06-.025.113-.05.167-.069.836-.344 1.366-.61 1.43-.639-.069.221-2.093 6.496.084 10.102a4.735 4.735 0 0 0 1.543 1.592 18.97 18.97 0 0 0 1.144.669c.172.098.344.186.516.265.133.069.266.133.398.192.369.167.732.314 1.086.442.025.01.05.014.074.024 2.186.762 4.103.718 5.876.123 2.993-.997 5.577-3.552 8.368-6.392.673-.688 4.457-5.356 5.35-11.66 1.544.177 3.882.285 6.614-.354 7.13-1.665 11.198-7.03 12.79-9.134 1.892-2.496 8.299-11.86 5.297-23.57Zm-41.293-4.741c1.597-2.305 4.673-3.047 7.002-1.69 1.98 1.154 2.943 3.581 2.348 5.906a.697.697 0 0 1-.845.506.692.692 0 0 1-.501-.845c.442-1.725-.26-3.514-1.7-4.359-1.7-.992-3.965-.432-5.154 1.283a.7.7 0 0 1-.968.177.7.7 0 0 1-.177-.968l-.005-.01Zm31.088 21.594c-.256 2.403-10.392 6.073-21.733.536-8.25-4.024-12.367-13.134-10.81-14.849.968-1.066 3.966 1.2 15.797 6.481 13.016 5.808 16.893 6.417 16.745 7.833Zm4.024-5.89a.697.697 0 0 1-.846.505.692.692 0 0 1-.5-.845c.441-1.72-.261-3.513-1.7-4.358-1.7-.993-3.966-.432-5.155 1.282a.7.7 0 0 1-.968.177.7.7 0 0 1-.177-.968c1.602-2.304 4.673-3.046 7.002-1.69 1.98 1.155 2.943 3.582 2.349 5.906l-.005-.01Z"/>
  </g>
  <defs>
    <radialGradient id="a" cx="0" cy="0" r="1" gradientTransform="matrix(0 55 -55 0 59 55)" gradientUnits="userSpaceOnUse">
      <stop offset=".089" stop-color="#0057C0"/>
      <stop offset=".833" stop-color="#499BFE"/>
    </radialGradient>
    <filter id="b" width="95" height="92.541" x="0" y="21.519" color-interpolation-filters="sRGB" filterUnits="userSpaceOnUse">
      <feFlood flood-opacity="0" result="BackgroundImageFix"/>
      <feColorMatrix in="SourceAlpha" result="hardAlpha" values="0 0 0 0 0 0 0 0 0 0 0 0 0 0 0 0 0 0 127 0"/>
      <feOffset/>
      <feGaussianBlur stdDeviation="2"/>
      <feComposite in2="hardAlpha" operator="out"/>
      <feColorMatrix values="0 0 0 0 0.286275 0 0 0 0 0.607843 0 0 0 0 0.996078 0 0 0 1 0"/>
      <feBlend in2="BackgroundImageFix" result="effect1_dropShadow_251_281"/>
      <feBlend in="SourceGraphic" in2="effect1_dropShadow_251_281" result="shape"/>
    </filter>
  </defs>
</svg>
