<svg xmlns="http://www.w3.org/2000/svg" width="110" height="110" fill="none" viewBox="0 0 110 110">
  <path fill="url(#a)" d="M0 0h55c30.376 0 55 24.624 55 55v55H0V0Z"/>
  <g filter="url(#b)">
    <path fill="#fff" d="M45.822 30.525c.332-.096.55.089.682.519.23.744.544 1.462.77 2.206.161.53.366.733 1.003.607 3.375-.668 6.787-.88 10.219-.53 1.293.133 2.58.325 3.86.552.483.086.667-.053.803-.467.266-.815.583-1.613.845-2.43.116-.359.296-.482.687-.45 4.85.404 9.449 1.625 13.705 3.976.287.159.488.38.663.65 4.85 7.445 8.185 15.456 9.449 24.23.52 3.612.67 7.235.246 10.875-.107.924-.498 1.567-1.225 2.137-2.554 1.996-5.44 3.417-8.403 4.71-2.377 1.037-4.811 1.93-7.263 2.782-.494.172-.74.102-1-.358a170.263 170.263 0 0 0-2.811-4.79c-.243-.4-.162-.557.25-.733 1.434-.613 2.847-1.275 4.285-1.88.483-.205.674-.382.371-.9-.63-1.075-.357-1.061-1.555-.547-10.868 4.662-21.73 4.58-32.584-.058-.262-.112-.579-.483-.843-.156a3.481 3.481 0 0 0-.617 1.248c-.066.236.315.299.523.392 1.422.64 2.839 1.29 4.278 1.895.482.203.485.38.24.788-.96 1.583-1.883 3.189-2.819 4.786-.158.27-.26.53-.713.374-5.194-1.783-10.289-3.752-14.904-6.769-1.57-1.026-2.262-2.287-2.377-4.15-.443-7.241.82-14.203 3.3-20.99 1.64-4.488 3.846-8.707 6.438-12.737a2.55 2.55 0 0 1 .953-.905c4.183-2.265 8.687-3.444 13.544-3.877Zm-7.775 27.082c-.041.447.043.961.171 1.464.606 2.364 2.004 4.08 4.454 4.735 2.318.62 4.31-.101 5.884-1.837 1.987-2.188 2.224-5.643.574-8.116-1.141-1.711-2.736-2.739-4.878-2.778-3.448-.06-6.21 2.826-6.206 6.532h.001Zm34.397-.148c.046-.626-.082-1.317-.311-1.982-.788-2.28-2.294-3.872-4.772-4.317-2.287-.412-4.185.408-5.623 2.176-1.999 2.459-1.965 6.059.085 8.504 1.11 1.325 2.543 2.111 4.33 2.155 3.5.087 6.287-2.783 6.29-6.537v.002Z"/>
  </g>
  <defs>
    <radialGradient id="a" cx="0" cy="0" r="1" gradientTransform="matrix(0 55 -55 0 55 55)" gradientUnits="userSpaceOnUse">
      <stop offset=".089" stop-color="#0057C0"/>
      <stop offset=".833" stop-color="#499BFE"/>
    </radialGradient>
    <filter id="b" width="75.5" height="57.5" x="17.5" y="26.5" color-interpolation-filters="sRGB" filterUnits="userSpaceOnUse">
      <feFlood flood-opacity="0" result="BackgroundImageFix"/>
      <feColorMatrix in="SourceAlpha" result="hardAlpha" values="0 0 0 0 0 0 0 0 0 0 0 0 0 0 0 0 0 0 127 0"/>
      <feOffset/>
      <feGaussianBlur stdDeviation="2"/>
      <feComposite in2="hardAlpha" operator="out"/>
      <feColorMatrix values="0 0 0 0 0.286275 0 0 0 0 0.607843 0 0 0 0 0.996078 0 0 0 1 0"/>
      <feBlend in2="BackgroundImageFix" result="effect1_dropShadow_251_276"/>
      <feBlend in="SourceGraphic" in2="effect1_dropShadow_251_276" result="shape"/>
    </filter>
  </defs>
</svg>
