<svg xmlns="http://www.w3.org/2000/svg" width="110" height="111" fill="none" viewBox="0 0 110 111">
  <path fill="url(#a)" d="M0 .06h55c30.376 0 55 24.624 55 55v55H0V.06Z"/>
  <path fill="#499BFE" d="M35.268 22.09c.412-.12.684.112.849.65.285.933.676 1.832.958 2.764.2.663.454.918 1.248.76 4.2-.836 8.445-1.101 12.716-.663 1.61.166 3.212.406 4.803.69.602.108.832-.066 1-.584.331-1.02.726-2.02 1.052-3.043.145-.45.369-.604.855-.563 6.035.505 11.758 2.034 17.055 4.979.357.199.607.476.825.813 6.035 9.326 10.186 19.36 11.759 30.35.646 4.523.833 9.061.305 13.621-.133 1.157-.619 1.962-1.523 2.676-3.178 2.5-6.771 4.28-10.457 5.9-2.958 1.299-5.988 2.416-9.039 3.485-.615.214-.92.127-1.244-.449a213.62 213.62 0 0 0-3.5-5.999c-.3-.501-.2-.698.312-.918 1.786-.769 3.543-1.598 5.333-2.356.601-.256.839-.478.462-1.126-.786-1.347-.444-1.33-1.936-.686-13.524 5.839-27.042 5.736-40.549-.072-.325-.14-.72-.605-1.049-.195-.359.446-.617 1.01-.768 1.562-.081.296.393.374.651.491 1.77.802 3.533 1.617 5.325 2.374.599.253.603.476.297.987-1.194 1.983-2.343 3.994-3.507 5.995-.197.337-.324.663-.887.468-6.463-2.233-12.804-4.7-18.547-8.478-1.954-1.285-2.815-2.865-2.958-5.198-.552-9.07 1.02-17.79 4.106-26.291 2.042-5.621 4.786-10.906 8.011-15.954.308-.48.677-.856 1.187-1.133 5.205-2.838 10.81-4.314 16.855-4.856Zm-9.676 33.922c-.051.56.054 1.204.213 1.834.753 2.96 2.493 5.11 5.543 5.93 2.884.777 5.364-.126 7.322-2.301 2.472-2.74 2.767-7.068.714-10.165-1.42-2.143-3.404-3.43-6.07-3.48-4.292-.075-7.728 3.54-7.724 8.182h.002Zm42.804-.185c.058-.784-.1-1.65-.386-2.483-.98-2.855-2.855-4.85-5.938-5.408-2.847-.515-5.208.511-6.997 2.727-2.488 3.08-2.447 7.588.105 10.65 1.38 1.66 3.164 2.645 5.388 2.7 4.355.109 7.824-3.486 7.828-8.188v.002Z"/>
  <g filter="url(#b)">
    <path fill="#fff" d="M45.822 30.585c.332-.097.55.088.682.518.23.744.544 1.462.77 2.206.161.53.366.734 1.003.608 3.375-.668 6.787-.88 10.219-.53a52.82 52.82 0 0 1 3.86.551c.483.086.667-.052.803-.467.266-.814.583-1.613.845-2.429.116-.36.296-.482.687-.45 4.85.404 9.449 1.624 13.705 3.976.287.158.488.38.663.649 4.85 7.446 8.185 15.457 9.449 24.231.52 3.611.67 7.235.246 10.875-.107.923-.498 1.566-1.225 2.136-2.554 1.996-5.44 3.418-8.403 4.71-2.377 1.038-4.811 1.93-7.263 2.783-.494.171-.74.101-1-.358a170.263 170.263 0 0 0-2.811-4.79c-.243-.4-.162-.557.25-.733 1.434-.614 2.847-1.275 4.285-1.881.483-.204.674-.382.371-.898-.63-1.076-.357-1.063-1.555-.549-10.868 4.662-21.73 4.58-32.584-.057-.262-.112-.579-.483-.843-.156a3.48 3.48 0 0 0-.617 1.247c-.066.237.315.3.523.393 1.422.64 2.839 1.29 4.278 1.895.482.202.485.38.24.788-.96 1.583-1.883 3.188-2.819 4.786-.158.27-.26.53-.713.374-5.194-1.783-10.289-3.753-14.904-6.769-1.57-1.026-2.262-2.287-2.377-4.15-.443-7.242.82-14.203 3.3-20.99 1.64-4.488 3.846-8.708 6.438-12.738.247-.383.543-.683.953-.904 4.183-2.266 8.687-3.445 13.544-3.877Zm-7.775 27.082c-.041.447.043.96.171 1.464.606 2.363 2.004 4.08 4.454 4.735 2.318.62 4.31-.102 5.884-1.838 1.987-2.187 2.224-5.642.574-8.115-1.141-1.711-2.736-2.74-4.878-2.778-3.448-.06-6.21 2.826-6.206 6.532h.001Zm34.397-.148c.046-.626-.082-1.317-.311-1.982-.788-2.28-2.294-3.873-4.772-4.318-2.287-.411-4.185.408-5.623 2.177-1.999 2.459-1.965 6.059.085 8.503 1.11 1.325 2.543 2.111 4.33 2.155 3.5.087 6.287-2.782 6.29-6.537v.002Z"/>
  </g>
  <defs>
    <radialGradient id="a" cx="0" cy="0" r="1" gradientTransform="matrix(0 55 -55 0 55 55.06)" gradientUnits="userSpaceOnUse">
      <stop offset=".089" stop-color="#0074FF"/>
      <stop offset=".833" stop-color="#499BFE"/>
    </radialGradient>
    <filter id="b" width="75.5" height="57.5" x="17.5" y="26.56" color-interpolation-filters="sRGB" filterUnits="userSpaceOnUse">
      <feFlood flood-opacity="0" result="BackgroundImageFix"/>
      <feColorMatrix in="SourceAlpha" result="hardAlpha" values="0 0 0 0 0 0 0 0 0 0 0 0 0 0 0 0 0 0 127 0"/>
      <feOffset/>
      <feGaussianBlur stdDeviation="2"/>
      <feComposite in2="hardAlpha" operator="out"/>
      <feColorMatrix values="0 0 0 0 0.286275 0 0 0 0 0.607843 0 0 0 0 0.996078 0 0 0 1 0"/>
      <feBlend in2="BackgroundImageFix" result="effect1_dropShadow_416_882"/>
      <feBlend in="SourceGraphic" in2="effect1_dropShadow_416_882" result="shape"/>
    </filter>
  </defs>
</svg>
