<svg width="324" height="22" viewBox="0 0 324 22" fill="none" xmlns="http://www.w3.org/2000/svg">
<path fill-rule="evenodd" clip-rule="evenodd" d="M0.000244141 21.2217C4.51285 20.6376 8.87734 18.6354 12.3745 15.2149C20.4204 7.34537 33.2793 7.34537 41.3252 15.2149C49.7598 23.4646 63.2399 23.4646 71.6745 15.2149C79.7204 7.34537 92.5793 7.34537 100.625 15.2149C109.06 23.4646 122.54 23.4646 130.974 15.2149C139.02 7.34537 151.879 7.34537 159.925 15.2149C168.36 23.4646 181.84 23.4646 190.274 15.2149C198.32 7.34537 211.179 7.34537 219.225 15.2149C227.66 23.4646 241.14 23.4646 249.574 15.2149C257.62 7.34537 270.479 7.34537 278.525 15.2149C286.96 23.4646 300.44 23.4646 308.874 15.2149L323.699 0.7149L323 0L308.175 14.5C300.129 22.3695 287.27 22.3695 279.224 14.5C270.79 6.25034 257.31 6.25034 248.875 14.5C240.829 22.3695 227.97 22.3695 219.924 14.5C211.49 6.25034 198.01 6.25034 189.575 14.5C181.529 22.3695 168.67 22.3695 160.624 14.5C152.19 6.25034 138.71 6.25034 130.275 14.5C122.229 22.3695 109.37 22.3695 101.324 14.5C92.8899 6.25034 79.4098 6.25034 70.9753 14.5C62.9293 22.3695 50.0704 22.3695 42.0245 14.5C33.5899 6.25034 20.1098 6.25034 11.6752 14.5C8.3726 17.7302 4.25902 19.6345 0.000244141 20.2129V21.2217Z" fill="#499BFE"/>
</svg>
