<svg xmlns="http://www.w3.org/2000/svg" width="594" height="22" fill="none" viewBox="0 0 594 22">
  <path fill="#499BFE" fill-rule="evenodd" d="M14.825 15.215 0 .715.7 0l14.824 14.5c8.046 7.87 20.905 7.87 28.951 0 8.435-8.25 21.915-8.25 30.35 0 8.045 7.87 20.904 7.87 28.95 0 8.435-8.25 21.915-8.25 30.349 0 8.046 7.87 20.905 7.87 28.951 0 8.435-8.25 21.915-8.25 30.349 0 8.046 7.87 20.905 7.87 28.951 0 8.435-8.25 21.915-8.25 30.349 0 8.046 7.87 20.905 7.87 28.951 0 8.435-8.25 21.915-8.25 30.349 0 8.046 7.87 20.905 7.87 28.951 0 8.435-8.25 21.915-8.25 30.349 0 8.046 7.87 20.905 7.87 28.951 0 8.435-8.25 21.915-8.25 30.349 0 8.046 7.87 20.905 7.87 28.951 0 8.435-8.25 21.915-8.25 30.349 0 8.046 7.87 20.905 7.87 28.951 0 8.435-8.25 21.915-8.25 30.349 0 8.046 7.87 20.905 7.87 28.951 0L593 0l.699.715-14.825 14.5c-8.434 8.25-21.914 8.25-30.349 0-8.046-7.87-20.905-7.87-28.951 0-8.434 8.25-21.914 8.25-30.349 0-8.046-7.87-20.905-7.87-28.951 0-8.434 8.25-21.914 8.25-30.349 0-8.046-7.87-20.905-7.87-28.951 0-8.434 8.25-21.914 8.25-30.349 0-8.046-7.87-20.905-7.87-28.951 0-8.434 8.25-21.914 8.25-30.349 0-8.046-7.87-20.905-7.87-28.951 0-8.434 8.25-21.914 8.25-30.349 0-8.046-7.87-20.905-7.87-28.951 0-8.434 8.25-21.914 8.25-30.349 0-8.046-7.87-20.905-7.87-28.951 0-8.434 8.25-21.914 8.25-30.349 0-8.046-7.87-20.905-7.87-28.951 0-8.434 8.25-21.914 8.25-30.349 0-8.046-7.87-20.905-7.87-28.95 0-8.435 8.25-21.915 8.25-30.35 0Z" clip-rule="evenodd"/>
</svg>
