<svg width="1443" height="729" viewBox="0 0 1443 729" fill="none" xmlns="http://www.w3.org/2000/svg">
<path d="M1096 729L1442 729L1442 1.66269C1416 8.56878 1370.8 71.6443 1262 93.7437C1126 121.368 1068 45.4012 904 20.0789C740 -5.24344 660 122.283 442 31.5889C236 -54.1131 92 59.2133 2.45158e-05 82.2336L-0.000158191 729L386 729L748 729L1096 729Z" fill="#C8E1FF"/>
<path fill-rule="evenodd" clip-rule="evenodd" d="M1.00028 357L1.00024 691C97.0003 641.402 265 627.18 391 662.068C520.232 697.851 663.506 672.168 771 647.695C777.602 646.191 784.023 644.714 790.288 643.273C896.008 618.948 957.617 604.773 1103 647.695C1226.2 684.066 1389 686.867 1443 662.068V357H1.00028Z" fill="white"/>
<path d="M316 41.0961C192.8 8.2633 54.0004 44.8271 0.000366211 67.2131V643.652C26.0004 638.056 71.2004 586.941 180 569.032C316 546.646 374 608.208 538 628.728C702 649.249 782 545.905 1000 619.401C1206 688.851 1350 597.015 1442 578.36V41.0961C1346 85.8681 1190 97.9655 1084 56.02C962 7.74317 815.495 33.9277 708 56.02C590 80.2715 470 82.1371 316 41.0961Z" fill="#499BFE"/>
</svg>
