<svg xmlns="http://www.w3.org/2000/svg" width="360" height="493" fill="none" viewBox="0 0 360 493">
  <path fill="#C8E1FF" d="M273.431 492.567h86.32V1.187c-6.487 1.77-17.763 17.93-44.907 23.591-33.929 7.078-48.399-12.385-89.314-18.873-40.914-6.487-60.873 26.185-115.26 2.95C58.878-13.104 22.952 15.931 0 21.828v470.738h273.431Z"/>
  <path fill="#fff" fill-rule="evenodd" d="M.25 397.26v85.571c23.95-12.707 65.863-16.351 97.297-7.412 32.241 9.167 67.985 2.588 94.803-3.683 1.647-.385 3.248-.763 4.811-1.133 26.376-6.232 41.746-9.863 78.016 1.133 30.736 9.319 71.351 10.036 84.823 3.683V397.26H.25Z" clip-rule="evenodd"/>
  <path fill="#499BFE" d="M78.836 14.955C48.1 6.543 13.472 15.911 0 21.646v449.055c6.487-1.433 17.763-14.529 44.907-19.117 33.929-5.736 48.399 10.037 89.314 15.294 40.914 5.257 60.873-21.22 115.259-2.39 51.393 17.794 87.319-5.735 110.271-10.515V14.955c-23.951 11.47-62.87 14.57-89.314 3.824-30.437-12.37-66.987-5.66-93.805 0-29.439 6.213-59.376 6.69-97.796-3.824Z"/>
</svg>
