<svg xmlns="http://www.w3.org/2000/svg" width="30" height="23" fill="none" viewBox="0 0 30 23">
  <path fill="#fff" d="M10.903.511c.144-.043.239.04.296.23.1.331.237.65.335.981.07.235.159.326.436.27a14.627 14.627 0 0 1 4.44-.235 22.45 22.45 0 0 1 1.678.245c.21.038.29-.024.349-.208.116-.362.253-.717.367-1.08.05-.16.129-.214.299-.2 2.107.18 4.106.722 5.956 1.767.124.07.212.17.288.289 2.107 3.31 3.556 6.87 4.106 10.77.226 1.604.29 3.215.107 4.833-.047.41-.217.696-.532.95-1.11.886-2.365 1.518-3.652 2.092a43.35 43.35 0 0 1-3.156 1.237c-.215.076-.322.045-.435-.159a76.128 76.128 0 0 0-1.222-2.129c-.105-.178-.07-.247.109-.326.623-.272 1.237-.566 1.862-.836.21-.09.293-.17.162-.399-.275-.478-.156-.472-.677-.244-4.722 2.072-9.443 2.036-14.16-.025-.113-.05-.25-.215-.366-.07a1.56 1.56 0 0 0-.268.555c-.028.105.137.133.227.174.618.285 1.234.574 1.86.843.209.09.21.168.104.35-.417.704-.819 1.417-1.225 2.127-.069.12-.113.235-.31.166-2.257-.792-4.471-1.668-6.477-3.008-.682-.456-.983-1.017-1.033-1.844-.192-3.22.356-6.313 1.434-9.33.713-1.994 1.671-3.87 2.798-5.66a1.12 1.12 0 0 1 .414-.403C6.835 1.227 8.792.704 10.903.511ZM7.524 12.548c-.018.198.019.427.074.65.264 1.05.871 1.813 1.936 2.105 1.007.275 1.873-.045 2.557-.817.863-.972.966-2.508.25-3.607-.496-.76-1.19-1.217-2.12-1.234-1.499-.027-2.699 1.256-2.697 2.903Zm14.948-.066a2.305 2.305 0 0 0-.135-.881c-.343-1.013-.997-1.721-2.074-1.919-.994-.183-1.818.181-2.443.967-.869 1.093-.855 2.693.036 3.78.483.589 1.105.938 1.882.957 1.52.04 2.732-1.236 2.734-2.905v.001Z"/>
</svg>
