<svg xmlns="http://www.w3.org/2000/svg" width="1442" height="729" fill="none" viewBox="0 0 1442 729">
  <path fill="#C8E1FF" d="M1096 729h346V1.663c-26 6.906-71.2 69.981-180 92.08-136 27.625-194-48.342-358-73.664-164-25.322-244 102.204-462 11.51C236-54.113 92 59.213 0 82.234V729h1096Z"/>
  <path fill="#499BFE" d="M316 41.096C192.8 8.263 54 44.827 0 67.213v576.439c26-5.596 71.2-56.711 180-74.62 136-22.386 194 39.176 358 59.696 164 20.521 244-82.823 462-9.327 206 69.45 350-22.386 442-41.041V41.096c-96 44.772-252 56.87-358 14.924-122-48.277-268.505-22.092-376 0-118 24.252-238 26.117-392-14.924Z"/>
</svg>
